# xmcd CD database file
#
# Track frame offsets:
#	150
#	15872
#	40854
#	53715
#	69180
#	80023
#	99420
#	113326
#	127816
#	152448
#	167923
#	181445
#	193931
#	207769
#
# Disc length: 2957 seconds
#
# Revision: 0
# Processed by: cddbd v1.5.1PL2 Copyright (c) Steve Scherf et al.
# Submitted via: CDex 1.51
#
DISCID=a40b8b0e
DTITLE=Honky Donk Rambles - Same Old Blues
DYEAR=2004
DGENRE=Blues
TTITLE0=chicken shake 
TTITLE1=blue shadows fallin
TTITLE2=t bone shuffle
TTITLE3=so glad your mine 
TTITLE4=mystery train 
TTITLE5=house aint no home 
TTITLE6=if you love me like you say
TTITLE7=blue over you 
TTITLE8=driftin blues 
TTITLE9=tell me why 
TTITLE10=sooner or later 
TTITLE11=swing for karin 
TTITLE12=same old blues 
TTITLE13=find a job 
EXTD=YEAR: 2004
EXTT0=
EXTT1=
EXTT2=
EXTT3=
EXTT4=
EXTT5=
EXTT6=
EXTT7=
EXTT8=
EXTT9=
EXTT10=
EXTT11=
EXTT12=
EXTT13=
PLAYORDER=
